<svg width="105" height="22" viewBox="0 0 105 22" fill="none" xmlns="http://www.w3.org/2000/svg">
<path d="M5.814 4.94C6.882 4.94 7.806 5.144 8.586 5.552C9.366 5.948 10.026 6.536 10.566 7.316L9.27 8.558C8.814 7.862 8.298 7.364 7.722 7.064C7.158 6.752 6.486 6.596 5.706 6.596C5.13 6.596 4.656 6.674 4.284 6.83C3.912 6.986 3.636 7.196 3.456 7.46C3.288 7.712 3.204 8 3.204 8.324C3.204 8.696 3.33 9.02 3.582 9.296C3.846 9.572 4.332 9.788 5.04 9.944L7.452 10.484C8.604 10.736 9.42 11.12 9.9 11.636C10.38 12.152 10.62 12.806 10.62 13.598C10.62 14.33 10.422 14.966 10.026 15.506C9.63 16.046 9.078 16.46 8.37 16.748C7.674 17.036 6.852 17.18 5.904 17.18C5.064 17.18 4.308 17.072 3.636 16.856C2.964 16.64 2.376 16.346 1.872 15.974C1.368 15.602 0.954 15.176 0.63 14.696L1.962 13.364C2.214 13.784 2.532 14.162 2.916 14.498C3.3 14.822 3.744 15.074 4.248 15.254C4.764 15.434 5.334 15.524 5.958 15.524C6.51 15.524 6.984 15.458 7.38 15.326C7.788 15.194 8.094 15.002 8.298 14.75C8.514 14.486 8.622 14.174 8.622 13.814C8.622 13.466 8.502 13.16 8.262 12.896C8.034 12.632 7.602 12.428 6.966 12.284L4.356 11.69C3.636 11.534 3.042 11.312 2.574 11.024C2.106 10.736 1.758 10.388 1.53 9.98C1.302 9.56 1.188 9.092 1.188 8.576C1.188 7.904 1.368 7.298 1.728 6.758C2.1 6.206 2.634 5.768 3.33 5.444C4.026 5.108 4.854 4.94 5.814 4.94ZM17.0028 17.18C16.1028 17.18 15.3108 16.994 14.6268 16.622C13.9428 16.25 13.4088 15.716 13.0248 15.02C12.6528 14.312 12.4668 13.472 12.4668 12.5C12.4668 11.528 12.6528 10.694 13.0248 9.998C13.4088 9.29 13.9368 8.75 14.6088 8.378C15.2808 8.006 16.0428 7.82 16.8948 7.82C17.7708 7.82 18.5148 8 19.1268 8.36C19.7388 8.72 20.2068 9.212 20.5308 9.836C20.8548 10.46 21.0168 11.168 21.0168 11.96C21.0168 12.176 21.0108 12.38 20.9988 12.572C20.9868 12.764 20.9688 12.932 20.9448 13.076H13.7088V11.6H20.0988L19.1448 11.888C19.1448 11.072 18.9408 10.448 18.5328 10.016C18.1248 9.572 17.5668 9.35 16.8588 9.35C16.3428 9.35 15.8928 9.47 15.5088 9.71C15.1248 9.95 14.8308 10.31 14.6268 10.79C14.4228 11.258 14.3208 11.834 14.3208 12.518C14.3208 13.19 14.4288 13.76 14.6448 14.228C14.8608 14.696 15.1668 15.05 15.5628 15.29C15.9588 15.53 16.4268 15.65 16.9668 15.65C17.5668 15.65 18.0528 15.536 18.4248 15.308C18.7968 15.08 19.0908 14.762 19.3068 14.354L20.8368 15.074C20.6208 15.506 20.3268 15.884 19.9548 16.208C19.5948 16.52 19.1628 16.76 18.6588 16.928C18.1548 17.096 17.6028 17.18 17.0028 17.18ZM27.4091 17.18C26.5091 17.18 25.7171 16.994 25.0331 16.622C24.3491 16.25 23.8151 15.716 23.4311 15.02C23.0591 14.312 22.8731 13.472 22.8731 12.5C22.8731 11.528 23.0591 10.694 23.4311 9.998C23.8151 9.29 24.3431 8.75 25.0151 8.378C25.6871 8.006 26.4491 7.82 27.3011 7.82C28.1771 7.82 28.9211 8 29.5331 8.36C30.1451 8.72 30.6131 9.212 30.9371 9.836C31.2611 10.46 31.4231 11.168 31.4231 11.96C31.4231 12.176 31.4171 12.38 31.4051 12.572C31.3931 12.764 31.3751 12.932 31.3511 13.076H24.1151V11.6H30.5051L29.5511 11.888C29.5511 11.072 29.3471 10.448 28.9391 10.016C28.5311 9.572 27.9731 9.35 27.2651 9.35C26.7491 9.35 26.2991 9.47 25.9151 9.71C25.5311 9.95 25.2371 10.31 25.0331 10.79C24.8291 11.258 24.7271 11.834 24.7271 12.518C24.7271 13.19 24.8351 13.76 25.0511 14.228C25.2671 14.696 25.5731 15.05 25.9691 15.29C26.3651 15.53 26.8331 15.65 27.3731 15.65C27.9731 15.65 28.4591 15.536 28.8311 15.308C29.2031 15.08 29.4971 14.762 29.7131 14.354L31.2431 15.074C31.0271 15.506 30.7331 15.884 30.3611 16.208C30.0011 16.52 29.5691 16.76 29.0651 16.928C28.5611 17.096 28.0091 17.18 27.4091 17.18ZM49.2276 17H47.1936L46.0596 13.886H41.0736L39.9396 17H37.9596L42.4416 5.12H44.7456L49.2276 17ZM41.6136 12.32H45.5196L43.5756 6.776L41.6136 12.32ZM52.9363 3.95V14.48C52.9363 14.924 53.0143 15.23 53.1703 15.398C53.3263 15.566 53.5843 15.65 53.9443 15.65C54.1603 15.65 54.3403 15.638 54.4843 15.614C54.6403 15.578 54.8323 15.518 55.0603 15.434L54.8443 16.874C54.6403 16.97 54.4063 17.042 54.1423 17.09C53.8783 17.15 53.6143 17.18 53.3503 17.18C52.5463 17.18 51.9523 16.976 51.5683 16.568C51.1963 16.148 51.0103 15.506 51.0103 14.642V3.95H52.9363ZM58.5437 3.95V14.48C58.5437 14.924 58.6217 15.23 58.7777 15.398C58.9337 15.566 59.1917 15.65 59.5517 15.65C59.7677 15.65 59.9477 15.638 60.0917 15.614C60.2477 15.578 60.4397 15.518 60.6677 15.434L60.4517 16.874C60.2477 16.97 60.0137 17.042 59.7497 17.09C59.4857 17.15 59.2217 17.18 58.9577 17.18C58.1537 17.18 57.5597 16.976 57.1757 16.568C56.8037 16.148 56.6177 15.506 56.6177 14.642V3.95H58.5437Z" fill="#4B4B4B" fill-opacity="0.69"/>
<path d="M96.1667 10.4083C96.2448 10.4858 96.3068 10.578 96.3492 10.6795C96.3915 10.7811 96.4132 10.89 96.4132 11C96.4132 11.11 96.3915 11.2189 96.3492 11.3205C96.3068 11.422 96.2448 11.5142 96.1667 11.5917L92.3417 15.4083C92.2636 15.4858 92.2016 15.578 92.1593 15.6795C92.117 15.7811 92.0952 15.89 92.0952 16C92.0952 16.11 92.117 16.2189 92.1593 16.3205C92.2016 16.422 92.2636 16.5142 92.3417 16.5917C92.4979 16.7469 92.7091 16.834 92.9292 16.834C93.1494 16.834 93.3606 16.7469 93.5167 16.5917L97.3417 12.7667C97.8099 12.2979 98.0729 11.6625 98.0729 11C98.0729 10.3375 97.8099 9.70208 97.3417 9.23332L93.5167 5.40833C93.3615 5.25437 93.152 5.16758 92.9334 5.16666C92.8237 5.16602 92.715 5.18704 92.6135 5.22852C92.512 5.26999 92.4196 5.33109 92.3417 5.40833C92.2636 5.48579 92.2016 5.57796 92.1593 5.67951C92.117 5.78106 92.0952 5.88998 92.0952 5.99999C92.0952 6.11 92.117 6.21892 92.1593 6.32047C92.2016 6.42202 92.2636 6.51419 92.3417 6.59166L96.1667 10.4083Z" fill="#4CAF50"/>
</svg>
